# xmcd
#
# Track frame offsets:
#	150
#	17015
#	30121
#	47885
#	61930
#	80703
#	92726
#	104461
#	122971
#	137056
#	156614
#	174035
#	183959
#
# Disc length: 2732 seconds
# Revision: 2
# Processed by: cddbd v1.5.2PL0 Copyright (c) Steve Scherf et al.
# Submitted via: dBpowerAMP V12.0
#
DISCID=a50aaa0d
DTITLE=Graham Rodger - Muster on the Great Divide
DYEAR=2006
DGENRE=Country
TTITLE0=Muster on the Great Divide
TTITLE1=Down at the Pub on a Friday Night
TTITLE2=The Bushman
TTITLE3=Old Furlong
TTITLE4=Jessie May
TTITLE5=In Answer to the Bush Balladeers
TTITLE6=Happy Just to Know That You're Mine
TTITLE7=a Tale from the North
TTITLE8=My Old Akubra Hat
TTITLE9=Clancy of the Overflow
TTITLE10=What Country's All About
TTITLE11=Woolshed Ball
TTITLE12=The Battle of Long Tan
EXTD=
EXTT0=
EXTT1=
EXTT2=
EXTT3=
EXTT4=
EXTT5=
EXTT6=
EXTT7=
EXTT8=
EXTT9=
EXTT10=
EXTT11=
EXTT12=
PLAYORDER=
